<?xml version="1.0" encoding="utf-8"?>
<!-- Generator: Adobe Illustrator 27.7.0, SVG Export Plug-In . SVG Version: 6.00 Build 0)  -->
<svg version="1.1" id="Layer_1" xmlns="http://www.w3.org/2000/svg" xmlns:xlink="http://www.w3.org/1999/xlink" x="0px" y="0px"
	 viewBox="0 0 512 512" style="enable-background:new 0 0 512 512;" xml:space="preserve">
<g>
	<path d="M204.8,230.4h-25.6c-6.74,0-13.34,2.73-18.1,7.5c-4.77,4.77-7.5,11.36-7.5,18.1v128c0,6.74,2.73,13.34,7.5,18.1
		c4.77,4.77,11.36,7.5,18.1,7.5h25.6c14.14,0,25.6-11.46,25.6-25.6s-11.46-25.6-25.6-25.6h0v-76.8h0c14.14,0,25.6-11.46,25.6-25.6
		S218.94,230.4,204.8,230.4z"/>
	<path d="M307.2,281.6L307.2,281.6v76.8c-14.14,0-25.6,11.46-25.6,25.6s11.46,25.6,25.6,25.6h25.6c6.74,0,13.34-2.73,18.1-7.5
		s7.5-11.36,7.5-18.1V256c0-6.74-2.73-13.34-7.5-18.1s-11.36-7.5-18.1-7.5h-25.6c-14.14,0-25.6,11.46-25.6,25.6
		S293.06,281.6,307.2,281.6z"/>
	<path d="M281.6,25.6V128c0.02,28.29,22.91,51.18,51.2,51.2l102.4,0c14.14,0,25.6-11.46,25.6-25.6c0-14.14-11.46-25.6-25.6-25.6
		H332.8l0,0V25.6c0-14.14-11.46-25.6-25.6-25.6C293.06,0,281.6,11.46,281.6,25.6z"/>
	<path d="M384,486.4v-25.6H128c-14.13-0.03-25.57-11.47-25.6-25.6V76.8c0.03-14.13,11.47-25.57,25.6-25.6h168.6l113,113v271
		c-0.03,14.13-11.47,25.57-25.6,25.6V486.4V512c42.43-0.02,76.78-34.37,76.8-76.8V153.6c0-6.74-2.73-13.34-7.5-18.1l-128-128
		C320.54,2.73,313.94,0,307.2,0H128C85.57,0.02,51.22,34.37,51.2,76.8v358.4c0.02,42.43,34.37,76.78,76.8,76.8h256V486.4z"/>
</g>
</svg>
